<svg xmlns="http://www.w3.org/2000/svg" direction="ltr" width="73.06461386987829" height="70.30526692886774" viewBox="248.43373993770166 313.50135559706916 73.06461386987829 70.30526692886774" stroke-linecap="round" stroke-linejoin="round" data-color-mode="light" class="tl-container tl-theme__force-sRGB tl-theme__light" ><defs/><g transform="matrix(1, 0, 0, 1, 270, 336)" opacity="1"><path stroke-width="3.5" d="M -0.5262 11.9937 C -0.7749 5.017 4.8215 -0.4675 11.7251 -0.4675 C 19.9664 -0.6189 25.5629 4.8656 25.5629 11.6311 C 24.4298 19.9215 18.8333 25.406 11.9298 25.406 C 5.0702 24.2437 -0.5262 18.7592 -0.5262 11.9937 M -0.6418 11.8907 C -0.6457 6.25 4.9507 0.7655 11.8543 0.7655 C 18.5301 0.3952 24.1266 5.8797 24.1266 12.6452 C 26.0457 19.3872 20.4493 24.8717 13.5457 24.8717 C 4.9547 24.1407 -0.6418 18.6562 -0.6418 11.8907" fill="none" stroke="#1d1d1d"/></g><g transform="matrix(1, 0, 0, 1, 280.0589, 316.5249)" opacity="1"><g transform="scale(1)"><path d="M2.27,-.42 t.19,5.31 -.18,6.73 -.36,1.42 a2.14,2.14 0 0 1 -4.14,-1.06 t.35,-3 .12,-5.93 -.22,-2.93 a2.14,2.14 0 0 1 4.24,-.54 Z" stroke-linecap="round" fill="#1d1d1d"/></g></g><g transform="matrix(1, 0, 0, 1, 250.5572, 345.4088)" opacity="1"><g transform="scale(1)"><path d="M.22,-2.11 t2.91,.45 5.55,.37 2.62,-.08 a2.14,2.14 0 0 1 .26,4.28 t-3.04,.07 -6.04,-.4 -3,-.47 a2.14,2.14 0 0 1 .74,-4.22 Z" stroke-linecap="round" fill="#1d1d1d"/></g></g><g transform="matrix(1, 0, 0, 1, 283.9204, 367.0331)" opacity="1"><g transform="scale(1)"><path d="M2.14,.23 t-.08,6.84 -.07,6.84 a2.14,2.14 0 0 1 -4.28,-.02 t.08,-6.75 .07,-6.75 a2.14,2.14 0 0 1 4.28,-.16 Z" stroke-linecap="round" fill="#1d1d1d"/></g></g><g transform="matrix(1, 0, 0, 1, 301.6833, 347.7257)" opacity="1"><g transform="scale(1)"><path d="M.1,-2.13 t4.98,-.56 8.43,-.47 3.45,.09 a2.14,2.14 0 0 1 -.23,4.28 t-3.23,-.09 -8.11,.46 -4.87,.55 a2.14,2.14 0 0 1 -.42,-4.26 Z" stroke-linecap="round" fill="#1d1d1d"/></g></g><g transform="matrix(1, 0, 0, 1, 294.4237, 331.0441)" opacity="1"><g transform="scale(1)"><path d="M-1.25,-1.47 t3.93,-4.84 3.93,-4.84 a2.14,2.14 0 0 1 3.46,2.52 t-4.1,5.05 -4.1,5.05 a2.14,2.14 0 0 1 -3.12,-2.94 Z" stroke-linecap="round" fill="#1d1d1d"/></g></g><g transform="matrix(1, 0, 0, 1, 258.4346, 322.0854)" opacity="1"><g transform="scale(1)"><path d="M.96,-2.06 t2.2,1.57 4.67,4.85 2.46,3.27 a2.14,2.14 0 0 1 -3.58,2.35 t-.38,-.58 -3.18,-3.78 -3.45,-3.53 -.66,-.33 a2.14,2.14 0 0 1 1.92,-3.82 Z" stroke-linecap="round" fill="#1d1d1d"/></g></g><g transform="matrix(1, 0, 0, 1, 268.7834, 364.5618)" opacity="1"><g transform="scale(1)"><path d="M1.67,1.19 t-3.67,6.14 -3.66,6.15 a2.14,2.14 0 0 1 -3.82,-1.94 t1.12,-2 3.91,-6.51 2.78,-4.52 a2.14,2.14 0 0 1 3.34,2.68 Z" stroke-linecap="round" fill="#1d1d1d"/></g></g><g transform="matrix(1, 0, 0, 1, 298.5941, 364.7162)" opacity="1"><g transform="scale(1)"><path d="M1.27,-1.6 t5.09,5.02 5.5,5.6 .4,.57 a2.14,2.14 0 0 1 -3.52,2.44 t-1.32,-1.6 -5.16,-5.21 -3.83,-3.62 a2.14,2.14 0 0 1 2.84,-3.2 Z" stroke-linecap="round" fill="#1d1d1d"/></g></g></svg>